<mxfile host="app.diagrams.net" modified="2022-04-26T05:59:15.213Z" agent="5.0 (Windows NT 10.0; Win64; x64) AppleWebKit/537.36 (KHTML, like Gecko) Chrome/100.0.4896.127 Safari/537.36" etag="KGxjKyz0P5PUUZ_xav6O" version="17.4.6" type="github">
  <diagram id="Q3z_xrA6hkHFmgfPszHu" name="Page-1">
    <mxGraphModel dx="1422" dy="836" grid="1" gridSize="10" guides="1" tooltips="1" connect="1" arrows="1" fold="1" page="1" pageScale="1" pageWidth="827" pageHeight="1169" math="0" shadow="0">
      <root>
        <mxCell id="0" />
        <mxCell id="1" parent="0" />
        <mxCell id="4wWBXKbRoLQD5Z1DzByH-2" value="S0" style="ellipse;whiteSpace=wrap;html=1;aspect=fixed;" vertex="1" parent="1">
          <mxGeometry x="260" y="70" width="80" height="80" as="geometry" />
        </mxCell>
        <mxCell id="4wWBXKbRoLQD5Z1DzByH-13" value="0/0" style="edgeStyle=orthogonalEdgeStyle;rounded=0;orthogonalLoop=1;jettySize=auto;html=1;entryX=0.5;entryY=0;entryDx=0;entryDy=0;" edge="1" parent="1" source="4wWBXKbRoLQD5Z1DzByH-3" target="4wWBXKbRoLQD5Z1DzByH-4">
          <mxGeometry relative="1" as="geometry" />
        </mxCell>
        <mxCell id="4wWBXKbRoLQD5Z1DzByH-3" value="S1" style="ellipse;whiteSpace=wrap;html=1;aspect=fixed;" vertex="1" parent="1">
          <mxGeometry x="440" y="155" width="80" height="80" as="geometry" />
        </mxCell>
        <mxCell id="4wWBXKbRoLQD5Z1DzByH-14" value="5/0" style="edgeStyle=orthogonalEdgeStyle;rounded=0;orthogonalLoop=1;jettySize=auto;html=1;entryX=0.5;entryY=0;entryDx=0;entryDy=0;" edge="1" parent="1" source="4wWBXKbRoLQD5Z1DzByH-4" target="4wWBXKbRoLQD5Z1DzByH-6">
          <mxGeometry relative="1" as="geometry" />
        </mxCell>
        <mxCell id="4wWBXKbRoLQD5Z1DzByH-25" value="2/0" style="edgeStyle=orthogonalEdgeStyle;rounded=0;orthogonalLoop=1;jettySize=auto;html=1;exitX=1;exitY=0;exitDx=0;exitDy=0;entryX=1;entryY=1;entryDx=0;entryDy=0;" edge="1" parent="1" source="4wWBXKbRoLQD5Z1DzByH-4" target="4wWBXKbRoLQD5Z1DzByH-3">
          <mxGeometry relative="1" as="geometry" />
        </mxCell>
        <mxCell id="4wWBXKbRoLQD5Z1DzByH-4" value="S2" style="ellipse;whiteSpace=wrap;html=1;aspect=fixed;" vertex="1" parent="1">
          <mxGeometry x="440" y="280" width="80" height="80" as="geometry" />
        </mxCell>
        <mxCell id="4wWBXKbRoLQD5Z1DzByH-42" value="#7/0" style="edgeStyle=orthogonalEdgeStyle;rounded=0;orthogonalLoop=1;jettySize=auto;html=1;entryX=0.337;entryY=0.01;entryDx=0;entryDy=0;entryPerimeter=0;" edge="1" parent="1" source="4wWBXKbRoLQD5Z1DzByH-5" target="4wWBXKbRoLQD5Z1DzByH-2">
          <mxGeometry relative="1" as="geometry">
            <mxPoint x="135" y="30" as="targetPoint" />
            <Array as="points">
              <mxPoint x="110" y="30" />
              <mxPoint x="287" y="30" />
            </Array>
          </mxGeometry>
        </mxCell>
        <mxCell id="4wWBXKbRoLQD5Z1DzByH-5" value="S7" style="ellipse;whiteSpace=wrap;html=1;aspect=fixed;" vertex="1" parent="1">
          <mxGeometry x="100" y="280" width="70" height="70" as="geometry" />
        </mxCell>
        <mxCell id="4wWBXKbRoLQD5Z1DzByH-6" value="S3" style="ellipse;whiteSpace=wrap;html=1;aspect=fixed;" vertex="1" parent="1">
          <mxGeometry x="440" y="430" width="80" height="80" as="geometry" />
        </mxCell>
        <mxCell id="4wWBXKbRoLQD5Z1DzByH-16" value="9/0" style="edgeStyle=orthogonalEdgeStyle;rounded=0;orthogonalLoop=1;jettySize=auto;html=1;entryX=0.5;entryY=1;entryDx=0;entryDy=0;" edge="1" parent="1" source="4wWBXKbRoLQD5Z1DzByH-7" target="4wWBXKbRoLQD5Z1DzByH-5">
          <mxGeometry relative="1" as="geometry" />
        </mxCell>
        <mxCell id="4wWBXKbRoLQD5Z1DzByH-7" value="S6" style="ellipse;whiteSpace=wrap;html=1;aspect=fixed;" vertex="1" parent="1">
          <mxGeometry x="95" y="420" width="80" height="80" as="geometry" />
        </mxCell>
        <mxCell id="4wWBXKbRoLQD5Z1DzByH-15" value="2/0" style="edgeStyle=orthogonalEdgeStyle;rounded=0;orthogonalLoop=1;jettySize=auto;html=1;entryX=1;entryY=0.5;entryDx=0;entryDy=0;" edge="1" parent="1" source="4wWBXKbRoLQD5Z1DzByH-8" target="4wWBXKbRoLQD5Z1DzByH-10">
          <mxGeometry relative="1" as="geometry" />
        </mxCell>
        <mxCell id="4wWBXKbRoLQD5Z1DzByH-8" value="S4" style="ellipse;whiteSpace=wrap;html=1;aspect=fixed;" vertex="1" parent="1">
          <mxGeometry x="334" y="520" width="80" height="80" as="geometry" />
        </mxCell>
        <mxCell id="4wWBXKbRoLQD5Z1DzByH-10" value="S5" style="ellipse;whiteSpace=wrap;html=1;aspect=fixed;" vertex="1" parent="1">
          <mxGeometry x="200" y="520" width="80" height="80" as="geometry" />
        </mxCell>
        <mxCell id="4wWBXKbRoLQD5Z1DzByH-11" value="2/0" style="endArrow=classic;html=1;rounded=0;exitX=1;exitY=0.5;exitDx=0;exitDy=0;" edge="1" parent="1" source="4wWBXKbRoLQD5Z1DzByH-2">
          <mxGeometry width="50" height="50" relative="1" as="geometry">
            <mxPoint x="440" y="320" as="sourcePoint" />
            <mxPoint x="450" y="180" as="targetPoint" />
          </mxGeometry>
        </mxCell>
        <mxCell id="4wWBXKbRoLQD5Z1DzByH-19" value="2/0" style="endArrow=classic;html=1;rounded=0;exitX=0;exitY=1;exitDx=0;exitDy=0;entryX=1;entryY=0;entryDx=0;entryDy=0;" edge="1" parent="1" source="4wWBXKbRoLQD5Z1DzByH-6" target="4wWBXKbRoLQD5Z1DzByH-8">
          <mxGeometry width="50" height="50" relative="1" as="geometry">
            <mxPoint x="396" y="320" as="sourcePoint" />
            <mxPoint x="446" y="270" as="targetPoint" />
          </mxGeometry>
        </mxCell>
        <mxCell id="4wWBXKbRoLQD5Z1DzByH-20" value="0/0" style="endArrow=classic;html=1;rounded=0;exitX=0;exitY=0.5;exitDx=0;exitDy=0;" edge="1" parent="1" source="4wWBXKbRoLQD5Z1DzByH-10" target="4wWBXKbRoLQD5Z1DzByH-7">
          <mxGeometry width="50" height="50" relative="1" as="geometry">
            <mxPoint x="440" y="320" as="sourcePoint" />
            <mxPoint x="490" y="270" as="targetPoint" />
          </mxGeometry>
        </mxCell>
        <mxCell id="4wWBXKbRoLQD5Z1DzByH-24" value="7/1" style="endArrow=classic;html=1;rounded=0;exitX=0.5;exitY=0;exitDx=0;exitDy=0;entryX=0;entryY=0.5;entryDx=0;entryDy=0;" edge="1" parent="1" source="4wWBXKbRoLQD5Z1DzByH-5" target="4wWBXKbRoLQD5Z1DzByH-2">
          <mxGeometry width="50" height="50" relative="1" as="geometry">
            <mxPoint x="159.7487373415238" y="170.25126265847632" as="sourcePoint" />
            <mxPoint x="490" y="270" as="targetPoint" />
          </mxGeometry>
        </mxCell>
        <mxCell id="4wWBXKbRoLQD5Z1DzByH-26" value="(#0 &amp;amp; #2)/0" style="endArrow=classic;html=1;rounded=0;entryX=1;entryY=1;entryDx=0;entryDy=0;exitX=0;exitY=0;exitDx=0;exitDy=0;" edge="1" parent="1" source="4wWBXKbRoLQD5Z1DzByH-4" target="4wWBXKbRoLQD5Z1DzByH-2">
          <mxGeometry width="50" height="50" relative="1" as="geometry">
            <mxPoint x="440" y="320" as="sourcePoint" />
            <mxPoint x="490" y="270" as="targetPoint" />
          </mxGeometry>
        </mxCell>
        <mxCell id="4wWBXKbRoLQD5Z1DzByH-28" value="#5/0" style="endArrow=classic;html=1;rounded=0;exitX=0;exitY=0;exitDx=0;exitDy=0;entryX=1;entryY=1;entryDx=0;entryDy=0;" edge="1" parent="1" source="4wWBXKbRoLQD5Z1DzByH-6" target="4wWBXKbRoLQD5Z1DzByH-2">
          <mxGeometry width="50" height="50" relative="1" as="geometry">
            <mxPoint x="440" y="320" as="sourcePoint" />
            <mxPoint x="290" y="180" as="targetPoint" />
          </mxGeometry>
        </mxCell>
        <mxCell id="4wWBXKbRoLQD5Z1DzByH-31" value="(#2 &amp;amp; #0)/0" style="endArrow=classic;html=1;rounded=0;exitX=0.5;exitY=0;exitDx=0;exitDy=0;entryX=0.687;entryY=1.039;entryDx=0;entryDy=0;entryPerimeter=0;" edge="1" parent="1" source="4wWBXKbRoLQD5Z1DzByH-8" target="4wWBXKbRoLQD5Z1DzByH-2">
          <mxGeometry width="50" height="50" relative="1" as="geometry">
            <mxPoint x="680" y="550" as="sourcePoint" />
            <mxPoint x="730" y="500" as="targetPoint" />
          </mxGeometry>
        </mxCell>
        <mxCell id="4wWBXKbRoLQD5Z1DzByH-32" value="0/0" style="curved=1;endArrow=classic;html=1;rounded=0;exitX=1;exitY=0.5;exitDx=0;exitDy=0;entryX=1;entryY=0.5;entryDx=0;entryDy=0;" edge="1" parent="1">
          <mxGeometry x="-0.335" y="43" width="50" height="50" relative="1" as="geometry">
            <mxPoint x="412.9999999999943" y="560" as="sourcePoint" />
            <mxPoint x="519" y="320" as="targetPoint" />
            <Array as="points">
              <mxPoint x="679" y="500" />
            </Array>
            <mxPoint as="offset" />
          </mxGeometry>
        </mxCell>
        <mxCell id="4wWBXKbRoLQD5Z1DzByH-33" value="2/0" style="endArrow=classic;html=1;rounded=0;exitX=0.66;exitY=0.021;exitDx=0;exitDy=0;exitPerimeter=0;entryX=0;entryY=1;entryDx=0;entryDy=0;" edge="1" parent="1" source="4wWBXKbRoLQD5Z1DzByH-10" target="4wWBXKbRoLQD5Z1DzByH-3">
          <mxGeometry x="-0.3203" width="50" height="50" relative="1" as="geometry">
            <mxPoint x="480" y="450" as="sourcePoint" />
            <mxPoint x="530" y="400" as="targetPoint" />
            <mxPoint x="-1" as="offset" />
          </mxGeometry>
        </mxCell>
        <mxCell id="4wWBXKbRoLQD5Z1DzByH-34" value="(#2 &amp;amp; #0)/0" style="endArrow=classic;html=1;rounded=0;exitX=0.5;exitY=0;exitDx=0;exitDy=0;entryX=0.369;entryY=0.969;entryDx=0;entryDy=0;entryPerimeter=0;" edge="1" parent="1" source="4wWBXKbRoLQD5Z1DzByH-10" target="4wWBXKbRoLQD5Z1DzByH-2">
          <mxGeometry width="50" height="50" relative="1" as="geometry">
            <mxPoint x="480" y="330" as="sourcePoint" />
            <mxPoint x="530" y="280" as="targetPoint" />
          </mxGeometry>
        </mxCell>
        <mxCell id="4wWBXKbRoLQD5Z1DzByH-35" value="2/0" style="endArrow=classic;html=1;rounded=0;exitX=1;exitY=0;exitDx=0;exitDy=0;entryX=0.015;entryY=0.74;entryDx=0;entryDy=0;entryPerimeter=0;" edge="1" parent="1" source="4wWBXKbRoLQD5Z1DzByH-7" target="4wWBXKbRoLQD5Z1DzByH-3">
          <mxGeometry x="-0.5663" y="6" width="50" height="50" relative="1" as="geometry">
            <mxPoint x="480" y="330" as="sourcePoint" />
            <mxPoint x="530" y="280" as="targetPoint" />
            <mxPoint as="offset" />
          </mxGeometry>
        </mxCell>
        <mxCell id="4wWBXKbRoLQD5Z1DzByH-36" value="(#9 &amp;amp; #2 &amp;amp; #5)/0" style="endArrow=classic;html=1;rounded=0;exitX=0.65;exitY=0.021;exitDx=0;exitDy=0;exitPerimeter=0;entryX=0;entryY=1;entryDx=0;entryDy=0;" edge="1" parent="1" source="4wWBXKbRoLQD5Z1DzByH-7" target="4wWBXKbRoLQD5Z1DzByH-2">
          <mxGeometry width="50" height="50" relative="1" as="geometry">
            <mxPoint x="480" y="330" as="sourcePoint" />
            <mxPoint x="530" y="280" as="targetPoint" />
          </mxGeometry>
        </mxCell>
        <mxCell id="4wWBXKbRoLQD5Z1DzByH-37" value="5/0" style="endArrow=classic;html=1;rounded=0;exitX=0.994;exitY=0.385;exitDx=0;exitDy=0;exitPerimeter=0;entryX=0;entryY=0.5;entryDx=0;entryDy=0;" edge="1" parent="1" source="4wWBXKbRoLQD5Z1DzByH-7" target="4wWBXKbRoLQD5Z1DzByH-6">
          <mxGeometry x="-0.6592" y="3" width="50" height="50" relative="1" as="geometry">
            <mxPoint x="480" y="330" as="sourcePoint" />
            <mxPoint x="530" y="280" as="targetPoint" />
            <mxPoint as="offset" />
          </mxGeometry>
        </mxCell>
      </root>
    </mxGraphModel>
  </diagram>
</mxfile>
